<?xml version="1.0" encoding="iso-8859-1"?>
<!-- Generator: Adobe Illustrator 17.1.0, SVG Export Plug-In . SVG Version: 6.00 Build 0)  -->
<!DOCTYPE svg PUBLIC "-//W3C//DTD SVG 1.1//EN" "http://www.w3.org/Graphics/SVG/1.1/DTD/svg11.dtd">
<svg version="1.1" id="Capa_1" xmlns="http://www.w3.org/2000/svg" xmlns:xlink="http://www.w3.org/1999/xlink" x="0px" y="0px"
	 viewBox="0 0 206.5 206.5" style="enable-background:new 0 0 206.5 206.5;" xml:space="preserve">
<path d="M201.5,175.343H66.241l22.758-6.293c1.019-0.154,2.001-0.608,2.787-1.393l95.336-95.336
	c0.938-0.938,1.464-2.209,1.464-3.535s-0.527-2.598-1.464-3.535L169.77,47.898L67.363,150.305l11.243,11.243l-18.325,5.068
	l-17.152-17.152l5.068-18.325l12.096,12.096L162.699,40.828l-18.206-18.206c-1.953-1.953-5.118-1.953-7.071,0l-95.336,95.336
	c-0.756,0.756-1.228,1.732-1.389,2.776l-15.102,54.609H5c-2.761,0-5,2.238-5,5s2.239,5,5,5h196.5c2.761,0,5-2.238,5-5
	S204.261,175.343,201.5,175.343z"/>
<g>
</g>
<g>
</g>
<g>
</g>
<g>
</g>
<g>
</g>
<g>
</g>
<g>
</g>
<g>
</g>
<g>
</g>
<g>
</g>
<g>
</g>
<g>
</g>
<g>
</g>
<g>
</g>
<g>
</g>
</svg>
